<svg width="67" height="60" viewBox="0 0 67 60" fill="none" xmlns="http://www.w3.org/2000/svg">
<path d="M24.6947 -1.42011e-05C20.5414 -0.00122982 16.4549 1.04542 12.8136 3.04303C9.17222 5.04064 6.09369 7.92465 3.86299 11.4281C1.63229 14.9315 0.321518 18.9411 0.052029 23.0856C-0.217461 27.2302 0.563039 31.3757 2.32127 35.1385C1.49277 38.5679 0.745358 42.0163 0.0796482 45.4809C-0.0216593 46.0036 0.00583711 46.5431 0.159761 47.0527C0.313685 47.5623 0.589404 48.0268 0.96309 48.406C1.33678 48.7852 1.79718 49.0677 2.30452 49.2291C2.81186 49.3905 3.35086 49.4258 3.87494 49.3322C5.92565 48.9701 10.3859 48.1472 14.5268 47.1926C17.8831 48.7061 21.5354 49.4497 25.2163 49.369C28.8972 49.2884 32.5135 48.3854 35.8003 46.7262C39.087 45.0671 41.9611 42.6938 44.2119 39.7802C46.4628 36.8666 48.0335 33.4864 48.809 29.8872C49.5844 26.288 49.545 22.561 48.6937 18.979C47.8424 15.397 46.2006 12.0507 43.8887 9.18532C41.5768 6.31992 38.6532 4.0079 35.3321 2.41858C32.011 0.829261 28.3765 0.00289062 24.6947 -1.42011e-05ZM24.5697 52.6667C29.1304 56.907 35.1297 59.2596 41.3572 59.25C44.978 59.25 48.4178 58.4699 51.5218 57.0676C54.955 57.8708 58.7174 58.6739 61.1104 59.1743C61.7842 59.3157 62.4827 59.2849 63.1413 59.0849C63.8 58.8849 64.3977 58.522 64.879 58.0299C65.3603 57.5377 65.7098 56.9321 65.8951 56.2692C66.0805 55.6062 66.0957 54.9072 65.9393 54.2368C65.4061 51.9227 64.5634 48.3282 63.7306 45.0102C65.1936 41.8764 65.9821 38.4703 66.045 35.0124C66.108 31.5545 65.444 28.1219 64.096 24.9369C62.748 21.7519 60.7462 18.8856 58.22 16.5234C55.6939 14.1613 52.6998 12.356 49.4316 11.2246C50.5996 13.3472 51.4849 15.6136 52.0649 17.9659C54.8403 19.7549 57.1224 22.2117 58.7022 25.1113C60.282 28.0108 61.1089 31.2605 61.1072 34.5625C61.1072 37.8278 60.3172 40.8989 58.9182 43.6047L58.4903 44.4375L58.7207 45.346C59.4712 48.292 60.2579 51.6002 60.8339 54.0689C58.2862 53.5324 54.8497 52.7852 51.8148 52.061L50.9458 51.8569L50.1459 52.2552C47.4994 53.5719 44.5172 54.3125 41.3572 54.3125C37.9932 54.3188 34.6838 53.462 31.7455 51.824C29.3999 52.4132 26.9879 52.6965 24.5697 52.6667Z" fill="#FFE66D"/>
</svg>
