<svg width="377" height="89" viewBox="0 0 377 89" fill="none" xmlns="http://www.w3.org/2000/svg">
<path d="M24.6947 14C20.5414 13.9988 16.4549 15.0454 12.8136 17.043C9.17222 19.0406 6.09369 21.9247 3.86299 25.4281C1.63229 28.9315 0.321518 32.9411 0.0520289 37.0856C-0.217461 41.2302 0.563039 45.3757 2.32127 49.1385C1.49277 52.5679 0.745358 56.0163 0.0796482 59.4809C-0.0216593 60.0036 0.00583711 60.5431 0.159761 61.0527C0.313685 61.5623 0.589404 62.0268 0.96309 62.406C1.33678 62.7852 1.79718 63.0677 2.30452 63.2291C2.81186 63.3905 3.35086 63.4258 3.87494 63.3322C5.92565 62.9701 10.3859 62.1472 14.5268 61.1926C17.8831 62.7061 21.5354 63.4497 25.2163 63.369C28.8972 63.2884 32.5135 62.3854 35.8003 60.7262C39.087 59.0671 41.9611 56.6938 44.2119 53.7802C46.4628 50.8666 48.0335 47.4864 48.809 43.8872C49.5844 40.288 49.545 36.561 48.6937 32.979C47.8424 29.397 46.2006 26.0507 43.8887 23.1853C41.5768 20.3199 38.6532 18.0079 35.3321 16.4186C32.011 14.8293 28.3765 14.0029 24.6947 14V14ZM24.5696 66.6667C29.1304 70.907 35.1297 73.2596 41.3572 73.25C44.978 73.25 48.4178 72.4699 51.5218 71.0676C54.955 71.8708 58.7174 72.6739 61.1104 73.1743C61.7842 73.3157 62.4827 73.2849 63.1413 73.0849C63.8 72.8849 64.3977 72.522 64.879 72.0299C65.3603 71.5377 65.7098 70.9321 65.8951 70.2692C66.0805 69.6062 66.0957 68.9072 65.9393 68.2368C65.4061 65.9227 64.5634 62.3282 63.7306 59.0102C65.1936 55.8764 65.9821 52.4703 66.045 49.0124C66.108 45.5545 65.444 42.1219 64.096 38.9369C62.748 35.7519 60.7462 32.8856 58.22 30.5234C55.6939 28.1613 52.6998 26.356 49.4316 25.2246C50.5996 27.3472 51.4849 29.6136 52.0649 31.9659C54.8403 33.7549 57.1224 36.2117 58.7022 39.1113C60.282 42.0108 61.1089 45.2605 61.1072 48.5625C61.1072 51.8278 60.3172 54.8989 58.9182 57.6047L58.4903 58.4375L58.7207 59.346C59.4712 62.292 60.2579 65.6002 60.8339 68.0689C58.2862 67.5324 54.8497 66.7852 51.8148 66.061L50.9458 65.8569L50.1459 66.2552C47.4994 67.5719 44.5172 68.3125 41.3572 68.3125C37.9932 68.3188 34.6838 67.462 31.7455 65.824C29.3999 66.4132 26.9879 66.6965 24.5696 66.6667V66.6667Z" fill="#FFE66D"/>
<path d="M108.794 36.208C107.85 34.4773 106.552 33.1597 104.9 32.255C103.248 31.3503 101.321 30.898 99.1181 30.898C96.6795 30.898 94.5161 31.4487 92.6281 32.55C90.7401 33.6513 89.2651 35.2247 88.2031 37.27C87.1411 39.3153 86.6101 41.6753 86.6101 44.35C86.6101 47.1033 87.1411 49.5027 88.2031 51.548C89.3045 53.5933 90.8188 55.1667 92.7461 56.268C94.6735 57.3693 96.9155 57.92 99.4721 57.92C102.619 57.92 105.195 57.094 107.201 55.442C109.207 53.7507 110.525 51.4103 111.154 48.421H96.9941V42.108H119.296V49.306C118.745 52.1773 117.565 54.8323 115.756 57.271C113.947 59.7097 111.606 61.6763 108.735 63.171C105.903 64.6263 102.717 65.354 99.1771 65.354C95.2045 65.354 91.6055 64.469 88.3801 62.699C85.1941 60.8897 82.6768 58.392 80.8281 55.206C79.0188 52.02 78.1141 48.4013 78.1141 44.35C78.1141 40.2987 79.0188 36.68 80.8281 33.494C82.6768 30.2687 85.1941 27.771 88.3801 26.001C91.6055 24.1917 95.1848 23.287 99.1181 23.287C103.759 23.287 107.791 24.4277 111.213 26.709C114.635 28.951 116.995 32.1173 118.293 36.208H108.794ZM139.921 65.531C136.775 65.531 133.943 64.8427 131.425 63.466C128.908 62.05 126.922 60.0637 125.466 57.507C124.05 54.9503 123.342 52.0003 123.342 48.657C123.342 45.3137 124.07 42.3637 125.525 39.807C127.02 37.2503 129.046 35.2837 131.602 33.907C134.159 32.491 137.011 31.783 140.157 31.783C143.304 31.783 146.156 32.491 148.712 33.907C151.269 35.2837 153.275 37.2503 154.73 39.807C156.225 42.3637 156.972 45.3137 156.972 48.657C156.972 52.0003 156.205 54.9503 154.671 57.507C153.177 60.0637 151.131 62.05 148.535 63.466C145.979 64.8427 143.107 65.531 139.921 65.531ZM139.921 58.333C141.416 58.333 142.812 57.979 144.11 57.271C145.448 56.5237 146.51 55.4223 147.296 53.967C148.083 52.5117 148.476 50.7417 148.476 48.657C148.476 45.5497 147.65 43.17 145.998 41.518C144.386 39.8267 142.399 38.981 140.039 38.981C137.679 38.981 135.693 39.8267 134.08 41.518C132.507 43.17 131.72 45.5497 131.72 48.657C131.72 51.7643 132.487 54.1637 134.021 55.855C135.595 57.507 137.561 58.333 139.921 58.333ZM175.539 65.531C172.865 65.531 170.465 65.059 168.341 64.115C166.217 63.1317 164.526 61.814 163.267 60.162C162.048 58.51 161.379 56.681 161.261 54.675H169.58C169.738 55.9337 170.347 56.976 171.409 57.802C172.511 58.628 173.868 59.041 175.48 59.041C177.054 59.041 178.273 58.7263 179.138 58.097C180.043 57.4677 180.495 56.6613 180.495 55.678C180.495 54.616 179.945 53.8293 178.843 53.318C177.781 52.7673 176.07 52.1773 173.71 51.548C171.272 50.958 169.266 50.3483 167.692 49.719C166.158 49.0897 164.821 48.126 163.68 46.828C162.579 45.53 162.028 43.7797 162.028 41.577C162.028 39.7677 162.54 38.1157 163.562 36.621C164.624 35.1263 166.119 33.9463 168.046 33.081C170.013 32.2157 172.314 31.783 174.949 31.783C178.843 31.783 181.951 32.7663 184.271 34.733C186.592 36.6603 187.87 39.276 188.106 42.58H180.2C180.082 41.282 179.532 40.2593 178.548 39.512C177.604 38.7253 176.326 38.332 174.713 38.332C173.219 38.332 172.058 38.6073 171.232 39.158C170.446 39.7087 170.052 40.4757 170.052 41.459C170.052 42.5603 170.603 43.406 171.704 43.996C172.806 44.5467 174.517 45.117 176.837 45.707C179.197 46.297 181.144 46.9067 182.678 47.536C184.212 48.1653 185.53 49.1487 186.631 50.486C187.772 51.784 188.362 53.5147 188.401 55.678C188.401 57.566 187.87 59.2573 186.808 60.752C185.786 62.2467 184.291 63.4267 182.324 64.292C180.397 65.118 178.135 65.531 175.539 65.531ZM207.69 65.531C205.015 65.531 202.616 65.059 200.492 64.115C198.368 63.1317 196.676 61.814 195.418 60.162C194.198 58.51 193.53 56.681 193.412 54.675H201.731C201.888 55.9337 202.498 56.976 203.56 57.802C204.661 58.628 206.018 59.041 207.631 59.041C209.204 59.041 210.423 58.7263 211.289 58.097C212.193 57.4677 212.646 56.6613 212.646 55.678C212.646 54.616 212.095 53.8293 210.994 53.318C209.932 52.7673 208.221 52.1773 205.861 51.548C203.422 50.958 201.416 50.3483 199.843 49.719C198.309 49.0897 196.971 48.126 195.831 46.828C194.729 45.53 194.179 43.7797 194.179 41.577C194.179 39.7677 194.69 38.1157 195.713 36.621C196.775 35.1263 198.269 33.9463 200.197 33.081C202.163 32.2157 204.464 31.783 207.1 31.783C210.994 31.783 214.101 32.7663 216.422 34.733C218.742 36.6603 220.021 39.276 220.257 42.58H212.351C212.233 41.282 211.682 40.2593 210.699 39.512C209.755 38.7253 208.476 38.332 206.864 38.332C205.369 38.332 204.209 38.6073 203.383 39.158C202.596 39.7087 202.203 40.4757 202.203 41.459C202.203 42.5603 202.753 43.406 203.855 43.996C204.956 44.5467 206.667 45.117 208.988 45.707C211.348 46.297 213.295 46.9067 214.829 47.536C216.363 48.1653 217.68 49.1487 218.782 50.486C219.922 51.784 220.512 53.5147 220.552 55.678C220.552 57.566 220.021 59.2573 218.959 60.752C217.936 62.2467 216.441 63.4267 214.475 64.292C212.547 65.118 210.286 65.531 207.69 65.531ZM235.592 37.034C236.654 35.5393 238.109 34.3003 239.958 33.317C241.846 32.2943 243.99 31.783 246.389 31.783C249.182 31.783 251.699 32.4713 253.941 33.848C256.222 35.2247 258.012 37.1913 259.31 39.748C260.647 42.2653 261.316 45.1957 261.316 48.539C261.316 51.8823 260.647 54.852 259.31 57.448C258.012 60.0047 256.222 61.991 253.941 63.407C251.699 64.823 249.182 65.531 246.389 65.531C243.99 65.531 241.866 65.0393 240.017 64.056C238.208 63.0727 236.733 61.8337 235.592 60.339V80.576H227.332V32.314H235.592V37.034ZM252.879 48.539C252.879 46.5723 252.466 44.881 251.64 43.465C250.853 42.0097 249.791 40.9083 248.454 40.161C247.156 39.4137 245.74 39.04 244.206 39.04C242.711 39.04 241.295 39.4333 239.958 40.22C238.66 40.9673 237.598 42.0687 236.772 43.524C235.985 44.9793 235.592 46.6903 235.592 48.657C235.592 50.6237 235.985 52.3347 236.772 53.79C237.598 55.2453 238.66 56.3663 239.958 57.153C241.295 57.9003 242.711 58.274 244.206 58.274C245.74 58.274 247.156 57.8807 248.454 57.094C249.791 56.3073 250.853 55.1863 251.64 53.731C252.466 52.2757 252.879 50.545 252.879 48.539ZM265.194 48.539C265.194 45.235 265.843 42.3047 267.141 39.748C268.479 37.1913 270.268 35.2247 272.51 33.848C274.792 32.4713 277.329 31.783 280.121 31.783C282.56 31.783 284.684 32.2747 286.493 33.258C288.342 34.2413 289.817 35.4803 290.918 36.975V32.314H299.237V65H290.918V60.221C289.856 61.755 288.381 63.0333 286.493 64.056C284.645 65.0393 282.501 65.531 280.062 65.531C277.309 65.531 274.792 64.823 272.51 63.407C270.268 61.991 268.479 60.0047 267.141 57.448C265.843 54.852 265.194 51.8823 265.194 48.539ZM290.918 48.657C290.918 46.651 290.525 44.94 289.738 43.524C288.952 42.0687 287.89 40.9673 286.552 40.22C285.215 39.4333 283.779 39.04 282.245 39.04C280.711 39.04 279.295 39.4137 277.997 40.161C276.699 40.9083 275.637 42.0097 274.811 43.465C274.025 44.881 273.631 46.5723 273.631 48.539C273.631 50.5057 274.025 52.2363 274.811 53.731C275.637 55.1863 276.699 56.3073 277.997 57.094C279.335 57.8807 280.751 58.274 282.245 58.274C283.779 58.274 285.215 57.9003 286.552 57.153C287.89 56.3663 288.952 55.265 289.738 53.849C290.525 52.3937 290.918 50.663 290.918 48.657ZM305.181 48.657C305.181 45.2743 305.869 42.3243 307.246 39.807C308.622 37.2503 310.53 35.2837 312.969 33.907C315.407 32.491 318.2 31.783 321.347 31.783C325.398 31.783 328.741 32.8057 331.377 34.851C334.051 36.857 335.841 39.689 336.746 43.347H327.837C327.365 41.931 326.558 40.8297 325.418 40.043C324.316 39.217 322.94 38.804 321.288 38.804C318.928 38.804 317.059 39.6693 315.683 41.4C314.306 43.0913 313.618 45.5103 313.618 48.657C313.618 51.7643 314.306 54.1833 315.683 55.914C317.059 57.6053 318.928 58.451 321.288 58.451C324.631 58.451 326.814 56.9563 327.837 53.967H336.746C335.841 57.507 334.051 60.3193 331.377 62.404C328.702 64.4887 325.359 65.531 321.347 65.531C318.2 65.531 315.407 64.8427 312.969 63.466C310.53 62.05 308.622 60.0833 307.246 57.566C305.869 55.0093 305.181 52.0397 305.181 48.657ZM373.182 47.949C373.182 49.129 373.103 50.191 372.946 51.135H349.051C349.248 53.495 350.074 55.3437 351.529 56.681C352.984 58.0183 354.774 58.687 356.898 58.687C359.966 58.687 362.149 57.3693 363.447 54.734H372.356C371.412 57.8807 369.603 60.4767 366.928 62.522C364.253 64.528 360.969 65.531 357.075 65.531C353.928 65.531 351.096 64.8427 348.579 63.466C346.101 62.05 344.154 60.0637 342.738 57.507C341.361 54.9503 340.673 52.0003 340.673 48.657C340.673 45.2743 341.361 42.3047 342.738 39.748C344.115 37.1913 346.042 35.2247 348.52 33.848C350.998 32.4713 353.85 31.783 357.075 31.783C360.182 31.783 362.955 32.4517 365.394 33.789C367.872 35.1263 369.78 37.034 371.117 39.512C372.494 41.9507 373.182 44.763 373.182 47.949ZM364.627 45.589C364.588 43.465 363.821 41.7737 362.326 40.515C360.831 39.217 359.002 38.568 356.839 38.568C354.794 38.568 353.063 39.1973 351.647 40.456C350.27 41.6753 349.425 43.3863 349.11 45.589H364.627Z" fill="#FFE66D"/>
</svg>
