<svg width="39" height="37" viewBox="0 0 39 37" fill="none" xmlns="http://www.w3.org/2000/svg">
<path d="M2.89655 0.198678L36.9862 16.5041C37.3303 16.6688 37.6208 16.9275 37.8242 17.2503C38.0275 17.5731 38.1354 17.9468 38.1354 18.3283C38.1354 18.7098 38.0275 19.0835 37.8242 19.4063C37.6208 19.7291 37.3303 19.9878 36.9862 20.1525L2.89655 36.4579C2.54694 36.6255 2.15653 36.689 1.77182 36.641C1.38711 36.593 1.02431 36.4354 0.726643 36.187C0.428973 35.9386 0.208974 35.6098 0.0928498 35.2399C-0.0232743 34.87 -0.0306297 34.4746 0.0716598 34.1006L3.48224 21.5973C3.52399 21.4441 3.60992 21.3065 3.72932 21.2018C3.84872 21.0971 3.99631 21.0298 4.15368 21.0084L20.6727 18.7643C20.7415 18.7547 20.8068 18.7274 20.862 18.6852C20.9173 18.6429 20.9607 18.5872 20.9882 18.5233L21.0173 18.4213C21.03 18.331 21.0119 18.239 20.9658 18.1603C20.9197 18.0816 20.8483 18.0208 20.7633 17.9877L20.6743 17.9635L4.17147 15.721C4.01439 15.6993 3.86716 15.6319 3.74807 15.5272C3.62898 15.4225 3.54329 15.2851 3.50165 15.1321L0.0716598 2.55599C-0.0306297 2.18203 -0.0232743 1.78655 0.0928498 1.41665C0.208974 1.04675 0.428973 0.718025 0.726643 0.469626C1.02431 0.221227 1.38711 0.0636227 1.77182 0.0155854C2.15653 -0.0324518 2.54694 0.0311023 2.89655 0.198678Z" fill="#FFFFFF"/>
</svg>
